<svg xmlns="http://www.w3.org/2000/svg" viewBox="0 0 302.98 336.35"><title>Asset 1</title><g id="Layer_2" data-name="Layer 2"><g id="Layer_1-2" data-name="Layer 1"><path d="M303,38.67Q303,30,294.31,30H277.05a8.26,8.26,0,0,0-8.26,8.26V165.63a7.77,7.77,0,0,1-7.6,7.83H113.62c-4.7,0-7.36-2-8-6.05a7.41,7.41,0,0,1-.08-1.15V8.26A8.26,8.26,0,0,0,97.26,0H80.38Q71.7,0,71.7,8.67l.09.56v183.5q0,49.16-14.93,77.82t-48.19,32Q0,302.59,0,311.26v17.25a7.83,7.83,0,0,0,8.15,7.83l.53,0q23.6-1.94,41.67-13a101.2,101.2,0,0,0,30.36-28.67,130.24,130.24,0,0,0,18.55-40.23,175.1,175.1,0,0,0,6.14-40.66l0,.18q0-6.74,8.19-6.74l146.43.44a7.84,7.84,0,0,1,7.79,8.48q-2.82,33-14,54.44-14.94,28.67-48.19,32-8.67,0-8.67,8.67v17.25a7.83,7.83,0,0,0,8.15,7.83l.53,0q23.59-1.94,41.67-13a101.2,101.2,0,0,0,30.36-28.67,130.24,130.24,0,0,0,18.55-40.23,176.59,176.59,0,0,0,6.26-47.22V45c0-.2,0-.4,0-.6Z"/></g></g></svg>